<svg id="Layer_1" data-name="Layer 1" xmlns="http://www.w3.org/2000/svg" width="175.57" height="63.93" viewBox="0 0 175.57 63.93">
  <g>
    <path d="M37,77.8c-15.32,0-24.8-10.74-24.8-29.76S21.63,18.28,37,18.28,61.84,29,61.84,48,52.36,77.8,37,77.8Zm0-50.32c-8.84,0-12.76,6.73-12.76,20.56S28.11,68.61,37,68.61,49.81,61.88,49.81,48,45.89,27.48,37,27.48Z" transform="translate(-11.65 -14.37)" fill="#fff" stroke="#000" stroke-miterlimit="10"/>
    <path d="M109.8,76.71c-1.73-1.73-3.37-3.46-5.74-6a25.2,25.2,0,0,1-18,7c-11.95,0-18.88-8-18.88-17.2,0-8.37,5-14.11,12-17.93v-.27c-3.19-4-5.11-8.46-5.11-12.83,0-7.46,5.38-15.11,15.59-15.11,7.66,0,13.59,5.1,13.59,13,0,6.47-3.74,11.56-13.5,16.39V44c5.2,6,11,12.74,15,17.11,2.83-4.28,4.74-10.19,5.93-17.93H118c-1.64,9.65-4.28,17.29-8.84,22.66,3.28,3.46,6.47,6.92,10.12,10.83Zm-9.66-10.56c-3.65-4-10.49-11.46-17.33-19.29-3.28,2.09-7.93,6-7.93,12.47,0,7,5.2,12.37,12.58,12.37A17.18,17.18,0,0,0,100.14,66.15ZM81.45,28.75c0,4.37,2,7.74,4.65,11,6.2-3.55,10.21-6.82,10.21-12,0-3.73-2.1-7.92-7.11-7.92S81.45,24,81.45,28.75Z" transform="translate(-11.65 -14.37)"/>
    <path d="M160.14,76.71l-7.85-13.56c-3.19-5.19-5.19-8.56-7.11-12.1H145c-1.73,3.54-3.47,6.82-6.66,12.19L131,76.71h-9.12l18.78-31L122.57,15.37h9.21l8.11,14.38c2.28,4,4,7.1,5.66,10.37h.27c1.73-3.63,3.28-6.46,5.56-10.37l8.39-14.38h9.12L150.2,45.22l19.15,31.49Z" transform="translate(-11.65 -14.37)" fill="#fff" stroke="#000" stroke-miterlimit="10"/>
    <path d="M176.36,72a5.39,5.39,0,0,1,5.47-5.74c3.2,0,5.38,2.37,5.38,5.74s-2.09,5.73-5.47,5.73C178.55,77.71,176.36,75.25,176.36,72Z" transform="translate(-11.65 -14.37)"/>
  </g>
</svg>
