<svg height='100px' width='100px'  fill="#000000" xmlns="http://www.w3.org/2000/svg" xmlns:xlink="http://www.w3.org/1999/xlink" xmlns:a="http://ns.adobe.com/AdobeSVGViewerExtensions/3.0/" version="1.1" x="0px" y="0px" viewBox="-1.127 -3.748 40 40" enable-background="new -1.127 -3.748 40 40" xml:space="preserve"><path display="none" d="M9.689,4.561c-0.013,0-0.038,0-0.05,0c0.488-0.25,1.037-0.375,1.625-0.375c1.037,0,1.912,0.375,2.637,1.125  c0.637,0.649,0.986,1.412,1.074,2.299l0.013,0.887c0,0.013,0,0.013,0,0.025s0,0.013,0,0.025v21.017c0,0.175,0.063,0.324,0.188,0.449  c0.112,0.112,0.263,0.175,0.437,0.175h6.635c-0.812,0.787-1.224,1.712-1.224,2.799c0,1.138,0.437,2.1,1.324,2.899  c0.862,0.787,1.899,1.175,3.111,1.175c0.925,0,1.749-0.226,2.474-0.675c0.725,0.449,1.55,0.675,2.475,0.675  c1.212,0,2.249-0.388,3.123-1.175c0.875-0.8,1.313-1.762,1.313-2.899c0-1.087-0.4-2.012-1.212-2.799h6.522  c0.15,0,0.287-0.05,0.399-0.137c0.013-0.013,0.038-0.025,0.05-0.038c0.113-0.125,0.176-0.274,0.176-0.449v-9.146h-1.25v8.521h-9.608  c-0.025,0-0.05,0-0.063,0.013c-0.712,0.074-1.35,0.3-1.925,0.662c-0.574-0.362-1.212-0.588-1.911-0.662  c-0.025-0.013-0.05-0.013-0.075-0.013h-9.709V8.559c0-0.012,0-0.024,0-0.037c0.013-0.162,0.013-0.313,0.013-0.475  s-0.013-0.325-0.024-0.475c0-0.038,0-0.063,0-0.088c-0.113-1.162-0.588-2.187-1.425-3.049c-0.975-0.999-2.149-1.499-3.536-1.499  s-2.562,0.5-3.536,1.499C6.865,5.324,6.391,6.361,6.303,7.573c0,0.012,0,0.012,0,0.024c-0.025,0.15-0.038,0.3-0.038,0.463  c0,0.188,0.013,0.374,0.038,0.562l0.012,0.025v0.025c0.113,0.699,0.425,1.312,0.95,1.849h0.013c0.662,0.688,1.462,1.037,2.412,1.037  c0.938,0,1.749-0.35,2.424-1.037c0.662-0.687,0.987-1.499,0.987-2.461c0-0.963-0.325-1.774-0.987-2.462V5.585  C11.438,4.899,10.627,4.561,9.689,4.561L9.689,4.561z M8.165,6.46c0.412-0.438,0.924-0.649,1.524-0.649  c0.587,0,1.1,0.212,1.524,0.649h0.013c0.412,0.438,0.625,0.975,0.625,1.6c0,0.624-0.213,1.149-0.638,1.587  c-0.425,0.437-0.938,0.662-1.524,0.662c-0.6,0-1.112-0.213-1.524-0.65V9.647C7.84,9.309,7.64,8.934,7.553,8.509  c0-0.013,0-0.013,0-0.024c0-0.013,0-0.038,0-0.051C7.54,8.297,7.528,8.172,7.528,8.047c0-0.101,0-0.2,0.012-0.287  c0.013-0.038,0.013-0.063,0.013-0.088C7.627,7.21,7.828,6.81,8.165,6.46L8.165,6.46z M28.944,30.476  c0.312-0.15,0.638-0.25,0.987-0.288h0.949c0.688,0.088,1.287,0.375,1.812,0.838v-0.013c0.601,0.55,0.899,1.212,0.899,1.974  c0,0.763-0.299,1.425-0.899,1.975c-0.638,0.563-1.399,0.85-2.286,0.85c-0.537,0-1.025-0.1-1.462-0.3  c0.487-0.563,0.8-1.199,0.912-1.899c0.024-0.2,0.037-0.412,0.037-0.625C29.894,32.025,29.582,31.188,28.944,30.476L28.944,30.476z   M23.134,31.076c0.013-0.013,0.038-0.038,0.05-0.05c0.513-0.463,1.112-0.75,1.8-0.838h0.949c0.351,0.038,0.675,0.138,0.987,0.288  c-0.637,0.712-0.949,1.549-0.949,2.511c0,0.963,0.313,1.8,0.949,2.524c-0.438,0.2-0.925,0.3-1.462,0.3  c-0.888,0-1.649-0.287-2.274-0.85c-0.611-0.55-0.912-1.212-0.912-1.975c0-0.736,0.287-1.374,0.85-1.911  C23.121,31.076,23.121,31.076,23.134,31.076L23.134,31.076z M27.22,32.987c0-0.674,0.237-1.262,0.712-1.773  c0.475,0.512,0.713,1.1,0.713,1.773c0,0.15-0.013,0.288-0.025,0.425c-0.088,0.5-0.324,0.95-0.688,1.35  C27.457,34.25,27.22,33.662,27.22,32.987L27.22,32.987z"></path><path d="M10.175,9.879C10.12,7.191,9.174,4.893,7.357,2.984C5.486,1.001,3.225,0,0.556,0C0.351,0,0.167,0.019,0,0.038v1.741  c0.167-0.018,0.351-0.036,0.556-0.036c2.167,0,4.002,0.815,5.541,2.428c1.502,1.575,2.28,3.484,2.335,5.709v15.81H5.8  C5.597,25.67,5.374,25.67,5.171,25.67c-0.242,0-0.446,0-0.649,0.019c-1.095,0.129-2.059,0.573-2.874,1.334l-0.018,0.038  c-0.982,0.963-1.483,2.093-1.483,3.372c0,1.334,0.501,2.466,1.483,3.393h0.018c0.982,0.944,2.15,1.427,3.523,1.427  c1.353,0,2.538-0.482,3.52-1.427H8.674c0.797-0.761,1.278-1.631,1.446-2.632v0.093c0.036-0.26,0.055-0.519,0.055-0.761V27.43h17.607  v3.096c0,0.242,0.036,0.501,0.093,0.761v-0.093c0.129,1.001,0.593,1.871,1.408,2.632h-0.02c0.984,0.944,2.151,1.427,3.521,1.427  c1.372,0,2.559-0.482,3.542-1.427c0.982-0.927,1.463-2.059,1.463-3.393c0-1.279-0.48-2.409-1.463-3.372v-0.038  c-0.834-0.761-1.799-1.205-2.893-1.334c-0.203-0.019-0.407-0.019-0.649-0.019c-0.202,0-0.406,0-0.611,0.019h-2.649V14.958h-1.742  v10.731H10.175V9.879L10.175,9.879z M8.432,27.43v3.096c0,0.13,0,0.259-0.019,0.371c-0.017,0.019-0.017,0.056,0,0.073  c-0.092,0.613-0.407,1.15-0.907,1.595c0,0,0,0-0.02,0.018c-0.647,0.613-1.408,0.928-2.315,0.928c-0.91,0-1.688-0.314-2.318-0.928  v-0.018c-0.649-0.575-0.964-1.298-0.964-2.132c0-0.797,0.315-1.52,0.964-2.131c0.519-0.501,1.13-0.797,1.854-0.871h0.017  c0.13-0.019,0.278-0.037,0.446-0.037c0.129,0,0.258,0.019,0.426,0.037c0.018,0,0.055,0,0.093,0L8.432,27.43L8.432,27.43z   M29.524,30.526V27.43h2.742c0.038,0,0.074,0,0.112,0c0.13-0.018,0.277-0.036,0.406-0.036c0.168,0,0.316,0.019,0.464,0.036  c0.723,0.075,1.336,0.371,1.854,0.872h0.037c0.611,0.611,0.926,1.334,0.926,2.131c0,0.834-0.314,1.557-0.926,2.132l-0.037,0.018  c-0.631,0.613-1.41,0.928-2.318,0.928c-0.906,0-1.667-0.314-2.315-0.928c-0.02-0.018-0.02-0.018-0.02-0.018  c-0.499-0.444-0.797-0.981-0.87-1.595c0-0.018,0-0.055,0-0.073C29.542,30.785,29.524,30.656,29.524,30.526L29.524,30.526z"></path></svg>