<svg height='100px' width='100px'  fill="#000000" xmlns="http://www.w3.org/2000/svg" viewBox="0 0 64 64" x="0px" y="0px"><title>64 Pixel - Animals - 25 Set - Expanded</title><g data-name="Layer 25"><path d="M30,34.89a4,4,0,0,0-4.2-4.08,4,4,0,0,0-4.21,4.08,1,1,0,0,0,2,0,2.06,2.06,0,0,1,2.21-2.08A2,2,0,0,1,28,34.89a1,1,0,0,0,2,0Z"></path><path d="M38.16,30.81A4,4,0,0,0,34,34.89a1,1,0,0,0,2,0,2.21,2.21,0,0,1,4.41,0,1,1,0,0,0,2,0A4,4,0,0,0,38.16,30.81Z"></path><path d="M33.18,39.68H30.82a2,2,0,0,0-1.77,3.07l1.18,2a1.94,1.94,0,0,0,.77.76v2.77a1,1,0,0,0,2,0V45.55a2,2,0,0,0,.78-.76l1.17-2a2,2,0,0,0-1.77-3.07ZM32,43.79H32l-1.14-2.11,2.4.07Z"></path><path d="M58.9,7.19c-4.54-.34-9.93,2-14.07,6.15a21.82,21.82,0,0,0-5.19,8,.63.63,0,0,0,0,.19A20.15,20.15,0,0,0,32,20.09a20.15,20.15,0,0,0-7.61,1.41.63.63,0,0,0,0-.19,21.94,21.94,0,0,0-5.19-8C15,9.2,9.63,6.84,5.1,7.19a1,1,0,0,0-.93.92c-.34,4.54,2,9.94,6.15,14.08a22.44,22.44,0,0,0,7.16,4.87,14.2,14.2,0,0,0-2.26,7.83,16.92,16.92,0,0,0,.56,4.25,8.57,8.57,0,0,0,5.06,15.48,8.66,8.66,0,0,0,2.85-.49A4.85,4.85,0,0,0,26.37,56a17.54,17.54,0,0,0,5.62.82c3.34,0,7.13-.74,8.31-2.71a8.7,8.7,0,0,0,2.85.49,8.57,8.57,0,0,0,5.07-15.48,17,17,0,0,0,.56-4.25,14.2,14.2,0,0,0-2.26-7.83,22.33,22.33,0,0,0,7.16-4.87c4.14-4.14,6.49-9.54,6.15-14.08A1,1,0,0,0,58.9,7.19ZM11.74,20.77c-3.47-3.46-5.55-7.83-5.6-11.61,3.79.05,8.15,2.13,11.62,5.59A20.08,20.08,0,0,1,22.48,22a1.29,1.29,0,0,0,.19.32,14.47,14.47,0,0,0-3.94,3.09A19.94,19.94,0,0,1,11.74,20.77ZM32,54.84c-3.33,0-5.8-.77-6.49-1.6a8.45,8.45,0,0,0,2.25-2.13,16.41,16.41,0,0,0,8.5,0,8.37,8.37,0,0,0,2.24,2.12C37.81,54.06,35.33,54.84,32,54.84ZM46.42,38.12a8.48,8.48,0,0,0-3.27-.65,1,1,0,0,0,0,2A6.58,6.58,0,1,1,36.58,46a1,1,0,0,0-2,0,8.48,8.48,0,0,0,.65,3.27,15,15,0,0,1-6.46,0A8.48,8.48,0,0,0,29.42,46a1,1,0,0,0-2,0,6.58,6.58,0,1,1-6.58-6.57,1,1,0,1,0,0-2,8.47,8.47,0,0,0-3.26.65,15.23,15.23,0,0,1-.36-3.23c0-8.85,7.43-12.8,14.78-12.8S46.78,26,46.78,34.89A15.3,15.3,0,0,1,46.42,38.12Zm5.84-17.35a19.94,19.94,0,0,1-7,4.63,14.47,14.47,0,0,0-3.94-3.09,1.29,1.29,0,0,0,.19-.32,20,20,0,0,1,4.72-7.24c3.47-3.46,7.83-5.54,11.62-5.59C57.81,12.94,55.73,17.31,52.26,20.77Z"></path></g></svg>