<svg height='100px' width='100px'  fill="#000000" xmlns="http://www.w3.org/2000/svg" xmlns:xlink="http://www.w3.org/1999/xlink" version="1.1" x="0px" y="0px" viewBox="0 0 100 100" enable-background="new 0 0 100 100" xml:space="preserve"><path fill-rule="evenodd" clip-rule="evenodd" d="M85.465,19c2.633,3.5,4.5,7.4,5.6,11.7c1.066,4.2,1.333,8.5,0.8,12.9  c-0.533,4.566-1.933,8.85-4.2,12.85c-0.8,1.3-1.883,2.867-3.25,4.7c-1.633,2.033-2.633,3.35-3,3.95c-0.767,1.167-1.434,2.267-2,3.3  c-0.633,1.2-1.05,2.25-1.25,3.15l-0.05,0.15c-1.3,5.7-0.55,12.817,2.25,21.35c0.167,0.434,0.117,0.867-0.15,1.3  c-0.333,0.433-0.733,0.65-1.2,0.65h-44.45c-0.4,0-0.733-0.15-1-0.45c-0.3-0.267-0.45-0.6-0.45-1c-0.066-2.7-0.1-4.15-0.1-4.35  l-0.35-3.05l-5.3,0.65h-0.25l-0.5,0.1c-0.667,0.1-1.167,0.15-1.5,0.15h-0.1c-0.2,0.033-0.533,0.05-1,0.05  c-3.9,0-6.633-1.15-8.2-3.45c-1.867-2.4-2.05-5.667-0.55-9.8l0.1-0.25v-0.05c-2.2-1.533-2.85-3.2-1.95-5l0.05-0.15l-0.3-0.6  l-0.1-0.1c-0.533-1.167-0.567-2.533-0.1-4.1c-2.833-1.233-4.45-2.517-4.85-3.85c-0.633-1.434-0.05-3.65,1.75-6.65l5.5-8.55  c-0.2-0.433-0.383-0.95-0.55-1.55l-0.05-0.3c-0.133-0.7-0.183-1.35-0.15-1.95c0-0.2,0.033-0.35,0.1-0.45  c1.367-10.3,5.183-18.7,11.45-25.2l0.25-0.25c2.8-2.867,6.167-5.117,10.1-6.75c3.4-1.4,7.317-2.317,11.75-2.75  c1.467-0.167,3.067-0.284,4.8-0.35l4,0.05c1.867,0.067,3.566,0.233,5.1,0.5c4.933,0.767,9.417,2.333,13.45,4.7  C79.482,12.417,82.765,15.333,85.465,19z M74.166,12.75c-3.767-2.167-7.917-3.617-12.45-4.35c-1.367-0.233-2.983-0.4-4.85-0.5h-3.7  c-1.467,0.067-3.017,0.167-4.65,0.3c-4.3,0.434-7.933,1.284-10.9,2.55c-3.6,1.533-6.7,3.65-9.3,6.35  c-0.033,0.066-0.117,0.133-0.25,0.2c-5.767,6.1-9.283,13.983-10.55,23.65l-0.05,0.25c0,0.367,0.05,0.7,0.15,1v0.2l0.35,0.8  c0.267,0.1,0.45,0.317,0.55,0.65c0.133,0.333,0.15,0.667,0.05,1c-0.067,0.333-0.2,0.617-0.4,0.85l-0.3,0.4  c-3.233,4.966-5.083,7.816-5.55,8.55c-0.767,1.267-1.267,2.3-1.5,3.1c-0.067,0.367-0.067,0.617,0,0.75l0.1,0.45l0.6,0.55  c0.6,0.467,1.567,0.983,2.9,1.55l0.2,0.1c0.434,0.133,0.85,0.35,1.25,0.65c0.6,0.567,0.717,1.184,0.35,1.85l-0.35,0.45  c-0.333,0.867-0.417,1.583-0.25,2.15l0.15,0.25c0.034,0.233,0.184,0.45,0.45,0.65c0.3,0.233,0.467,0.567,0.5,1  c0,0.4-0.133,0.733-0.4,1l-0.1,0.15l-0.2,0.5c-0.2,0.3,0.15,0.767,1.05,1.4l0.15,0.1c0.533,0.3,0.883,0.667,1.05,1.1  c0.133,0.267,0.2,0.483,0.2,0.65c0,0.333-0.1,0.85-0.3,1.55l-0.1,0.15c-1.2,3.133-1.167,5.517,0.1,7.15l0.05,0.1  c1.067,1.633,3.3,2.367,6.7,2.2l0.2-0.05l1.15-0.1h0.05l0.05-0.05l6.5-0.8c0.434,0,0.833,0.067,1.2,0.2  c0.167,0.033,0.367,0.15,0.6,0.35c0.466,0.467,0.767,1.1,0.9,1.9c0.066,0.167,0.066,0.333,0,0.5l0.35,2.7  c0.033,0.4,0.05,1.483,0.05,3.25h15.4V76.05c-4.9-0.3-9.133-2.25-12.7-5.85c-3.934-3.867-5.9-8.566-5.9-14.1  c0-2.5,1.233-6.617,3.7-12.35c1.8-4.3,4.583-10.133,8.35-17.5l1-2c1.833-3.633,4.15-5.45,6.95-5.45c1.434,0,2.733,0.483,3.9,1.45  c1.133,0.9,2.15,2.233,3.05,4l1.15,2.2c3.267,6.4,5.783,11.583,7.55,15.55c0.267,0.6,0.517,1.183,0.75,1.75  c2.466,5.733,3.7,9.85,3.7,12.35c0,5.533-1.967,10.233-5.9,14.1c-3.367,3.4-7.333,5.333-11.9,5.8v16.1h22  c-2.533-8.367-3.117-15.467-1.75-21.3l0.1-0.25c0.3-1.133,0.783-2.3,1.45-3.5c0.4-0.833,1.083-2.017,2.05-3.55  c0.933-1.367,2-2.75,3.2-4.15c1.467-1.9,2.45-3.333,2.95-4.3c2.066-3.633,3.383-7.566,3.95-11.8c0.467-4.033,0.2-7.983-0.8-11.85  c-0.967-3.9-2.65-7.467-5.05-10.7C80.699,17.433,77.699,14.783,74.166,12.75z M56.365,25.9c-1.133-2.267-2.333-3.4-3.6-3.4  c-1.267,0-2.466,1.133-3.6,3.4l-1.05,2c-7.733,15.267-11.6,24.667-11.6,28.2c0,4.5,1.6,8.333,4.8,11.5  c3.066,3.066,6.717,4.65,10.95,4.75V59.4c-0.033-0.033-0.066-0.067-0.1-0.1l-6.1-6.1c-0.167-0.2-0.25-0.417-0.25-0.65  c0-0.3,0.083-0.517,0.25-0.65c0.2-0.2,0.417-0.3,0.65-0.3c0.267,0,0.483,0.1,0.65,0.3l4.9,4.9v-9l0.05,1l-0.05-7.7  c0-0.6,0.317-0.9,0.95-0.9c0.233,0,0.45,0.083,0.65,0.25c0.2,0.2,0.3,0.417,0.3,0.65v2.35l3.85-3.85c0.2-0.2,0.434-0.3,0.7-0.3  s0.483,0.1,0.65,0.3c0.367,0.433,0.367,0.867,0,1.3l-5.2,5.2v18.1l5.45-5.45c0.167-0.2,0.383-0.3,0.65-0.3  c0.267,0,0.483,0.1,0.65,0.3c0.2,0.167,0.3,0.383,0.3,0.65c0,0.233-0.1,0.45-0.3,0.65l-6.75,6.8v5.45  c3.933-0.267,7.333-1.833,10.2-4.7c3.167-3.167,4.75-7,4.75-11.5c0-2.333-1.6-7.034-4.8-14.1c-1.8-3.9-4.067-8.5-6.8-13.8  L56.365,25.9z M53.215,36.45c0.233,0,0.45,0.1,0.65,0.3c0.2,0.167,0.3,0.383,0.3,0.65v0.9c0,0.267-0.1,0.483-0.3,0.65  c-0.2,0.2-0.417,0.3-0.65,0.3c-0.633,0-0.95-0.317-0.95-0.95v-0.9C52.265,36.767,52.582,36.45,53.215,36.45z M45.515,51.35  c-0.167,0.167-0.383,0.25-0.65,0.25s-0.483-0.083-0.65-0.25c-0.2-0.2-0.3-0.417-0.3-0.65c0-0.3,0.1-0.533,0.3-0.7  c0.167-0.167,0.383-0.25,0.65-0.25s0.483,0.083,0.65,0.25c0.2,0.167,0.3,0.4,0.3,0.7C45.815,50.933,45.715,51.15,45.515,51.35z"></path></svg>