<svg height='100px' width='100px'  fill="#000000" xmlns="http://www.w3.org/2000/svg" data-name="Layer 1" viewBox="0 0 32 32" x="0px" y="0px"><title>Hand Set Icon</title><path d="M8.1531,12.5681a0.822,0.822,0,0,1,.079-0.098,1.7082,1.7082,0,0,1,.4251-0.3318,0.8156,0.8156,0,0,1,.1144-0.0527,0.8155,0.8155,0,0,1-.0789.0981,1.7082,1.7082,0,0,1-.4252.3316A0.8221,0.8221,0,0,1,8.1531,12.5681Z"></path><path d="M25.8347,26.21a0.2,0.2,0,0,1-.0762-0.0152c-0.0515-.0212-5.1615-2.12-6.48-2.4791a4.8065,4.8065,0,0,0-2.65.2552c-0.3776.1082-.7681,0.22-1.1735,0.2986a14.1661,14.1661,0,0,1-4.874-.3538,9.7161,9.7161,0,0,1-2.2705-2.1291A2.752,2.752,0,0,1,6.248,20.15C6.1863,20.0518,6.13,19.9612,6.0774,19.884a1.738,1.738,0,0,0-.8942-0.496,1.0435,1.0435,0,0,1-.74-0.4673,1.79,1.79,0,0,1,.5339-1.27c-0.2141-.6269-1.2607-3.7023-1.3371-4.1222-0.0185-.1017-0.0642-0.2522-0.1172-0.4264a2.1907,2.1907,0,0,1-.0887-1.771,0.8753,0.8753,0,0,1,.9078-0.2835,1.4823,1.4823,0,0,1,.3349-1.3691,1.2712,1.2712,0,0,1,1.449-.1736,1.2084,1.2084,0,0,1,.9565-0.2186,1.5618,1.5618,0,0,1,.8852.6608,1.8745,1.8745,0,0,1,2.0943.6992l4.1619,4.1075a6.7668,6.7668,0,0,0,2.95.5336c0.5345,0.0206,1.14.0439,1.8435,0.1117a6.8435,6.8435,0,0,1,3.476,1.0735c0.3345,0.1812.7508,0.4067,1.2716,0.6736,2.44,1.25,5.0734,2.6583,5.1,2.6723a0.2008,0.2008,0,0,1-.1894.3542c-0.0263-.014-2.6566-1.42-5.0935-2.669-0.525-.2691-0.9435-0.4959-1.28-0.6781a6.48,6.48,0,0,0-3.3231-1.0267c-0.6915-.0667-1.2913-0.09-1.82-0.11a7.1019,7.1019,0,0,1-3.1428-.59l-0.0285-.0143-0.0227-.0224L9.7557,10.906a1.4729,1.4729,0,0,0-1.758-.5234l-0.1834.1093-0.0979-.19A1.3094,1.3094,0,0,0,6.994,9.6779,0.8809,0.8809,0,0,0,6.2645,9.9l-0.11.0854L6.0356,9.9117a0.9226,0.9226,0,0,0-1.08.0556A1.3609,1.3609,0,0,0,4.82,11.2782l0.19,0.4864-0.4669-.2332a0.72,0.72,0,0,0-.791.045,2.2213,2.2213,0,0,0,.1552,1.4087,4.736,4.736,0,0,1,.1281.4714c0.0647,0.3557,1.0025,3.1311,1.3583,4.17l0.037,0.108-0.0739.0871a1.9509,1.9509,0,0,0-.5345.9651,1.385,1.385,0,0,0,.488.22,2.0418,2.0418,0,0,1,1.0993.6514c0.0549,0.0809.1143,0.1758,0.1789,0.2792,0.39,0.6239.9236,1.4786,1.8089,1.4473l0.0986-.0034,0.063,0.0759a9.6876,9.6876,0,0,0,2.1532,2.0789,13.8728,13.8728,0,0,0,4.6669.3394c0.3882-.0753.77-0.1846,1.1394-0.29a5.1113,5.1113,0,0,1,2.8659-.2566c1.3421,0.366,6.3156,2.4084,6.5267,2.4952A0.2009,0.2009,0,0,1,25.8347,26.21Z"></path><path d="M10.9529,18.9225a9.2363,9.2363,0,0,1-2.8442-.6761c-0.3155-.11-0.6418-0.2229-0.9527-0.319-1.4212-.4393-1.8033-0.1-1.807-0.0969l-0.1452-.1386-0.152-.1313c0.08-.0928.5639-0.5295,2.2228-0.017,0.3175,0.0982.6471,0.2127,0.9658,0.3233,1.3023,0.4522,2.649.92,3.6494,0.4709a7.6776,7.6776,0,0,0,.71-0.4052,11.72,11.72,0,0,1,4.4565-1.7984,9.351,9.351,0,0,1,7.0644,2.1108,0.2008,0.2008,0,0,1-.2417.3208c-5.163-3.89-9.1528-1.4585-11.07-.29a7.848,7.848,0,0,1-.7546.4285A2.6567,2.6567,0,0,1,10.9529,18.9225Z"></path><path d="M8.3321,21.3984L8.35,21.3923c0.015-.0051.0351-0.0112,0.0575-0.0172,0.047-.0131.1136-0.0286,0.1978-0.0433s0.1857-.0285.3017-0.0376,0.2463-.0139.3877-0.0125,0.2937,0.01.4533,0.027c0.08,0.0079.1617,0.017,0.2446,0.03q0.1249,0.0165.2531,0.0419c0.0857,0.0147.1721,0.0329,0.259,0.0535,0.0865,0.0187.1764,0.04,0.2619,0.0634,0.1722,0.0436.3514,0.0946,0.526,0.1461,0.7,0.207,1.3857.452,1.8971,0.6414s0.8479,0.3265.8479,0.3265-0.3453-.1131-0.8678-0.2669-1.2217-.35-1.9276-0.5065c-0.177-.0391-0.35-0.0758-0.5274-0.1079-0.0885-.0175-0.1723-0.0315-0.2582-0.0439-0.0849-.0141-0.1689-0.0257-0.2519-0.0341q-0.1241-.0159-0.244-0.0233c-0.08-.0072-0.1577-0.01-0.2335-0.0126-0.1516-.006-0.2945-0.0024-0.4255.004s-0.25.02-.3536,0.0359-0.1927.0339-.2641,0.0515-0.1254.0344-.16,0.0466l-0.0348.013L8.477,21.773l-0.0048.002a0.201,0.201,0,1,1-.1527-0.3718Z"></path><path d="M9.1949,18.397s0.27-.2214.6886-0.5316c0.209-.1559.4552-0.3342,0.7215-0.5216,0.1337-.0929.27-0.1913,0.4118-0.287l0.4282-.2917,0.432-.286c0.1419-.0952.2848-0.1841,0.4214-0.2727,0.2741-.1757.5324-0.3361,0.7558-0.47C13.5,15.4654,13.8069,15.3,13.8069,15.3s-0.2694.2216-.6885,0.5318c-0.209.156-.4552,0.3343-0.7215,0.5216-0.1337.0929-.27,0.1916-0.4119,0.2869l-0.4282.2917-0.4321.2859c-0.1421.0949-.2849,0.184-0.4215,0.2726-0.2742.1755-.5324,0.336-0.7558,0.47C9.5019,18.2313,9.1949,18.397,9.1949,18.397Z"></path><path d="M5,14.8922l0.0711-.0116c0.045-.0069.1086-0.0213,0.1835-0.04,0.0376-.0087.0777-0.0205,0.12-0.0323s0.0858-.0283.1316-0.0417c0.0445-.0176.0914-0.0329,0.137-0.0533A1.3955,1.3955,0,0,0,5.7806,14.65a1.885,1.885,0,0,0,.2562-0.1507c0.04-.0253.0752-0.0555,0.11-0.0819a1.0517,1.0517,0,0,0,.0947-0.08c0.0278-.0265.0566-0.0481,0.0787-0.0706l0.0568-.059c0.0319-.0327.0516-0.0508,0.0516-0.0508s-0.0122.0231-.036,0.0626l-0.0437.0712a0.9571,0.9571,0,0,1-.0657.0864,0.7114,0.7114,0,0,1-.0864.0957A0.9629,0.9629,0,0,1,6.09,14.57a1.1137,1.1137,0,0,1-.1255.0905,1.3216,1.3216,0,0,1-.1389.0791,1.49,1.49,0,0,1-.1464.0637c-0.0483.0211-.0994,0.0319-0.1468,0.0476a1.5645,1.5645,0,0,1-.2683.0464,1.3524,1.3524,0,0,1-.1917.0025A0.5614,0.5614,0,0,1,5,14.8922Z"></path><path d="M6.4289,17.189s0.0854-.0249.2063-0.0716c0.0606-.0231.13-0.0527,0.2024-0.0864a2.397,2.397,0,0,0,.2208-0.1177,2.3393,2.3393,0,0,0,.2087-0.1374c0.0332-.0225.0618-0.0486,0.0915-0.0706s0.0554-.0456.08-0.0669,0.0482-.04.067-0.0584l0.05-.0474,0.0456-.0406-0.03.053a0.9041,0.9041,0,0,1-.091.1332,0.7194,0.7194,0,0,1-.0706.082,1.004,1.004,0,0,1-.0869.0844,1.196,1.196,0,0,1-.1012.0812c-0.0366.0248-.0727,0.0518-0.112,0.0738s-0.0784.044-.1185,0.0626a1.2571,1.2571,0,0,1-.1195.05,1.2962,1.2962,0,0,1-.2209.06A0.869,0.869,0,0,1,6.4289,17.189Z"></path><path d="M7.8949,16.1289s0.0717-.0354.1742-0.0908c0.0515-.0273.11-0.0614,0.1723-0.0973,0.0611-.0382.127-0.0771,0.1887-0.1221a2.1744,2.1744,0,0,0,.179-0.1345c0.0555-.0452.1057-0.09,0.147-0.13s0.0765-.0747.1-0.1l0.0389-.0387-0.0224.05a0.735,0.735,0,0,1-.0721.126,0.6039,0.6039,0,0,1-.0585.0779,0.7289,0.7289,0,0,1-.0731.0807,1.2475,1.2475,0,0,1-.1814.1517c-0.0328.0234-.0679,0.0433-0.1016,0.0639s-0.07.0363-.1029,0.0536a1.3385,1.3385,0,0,1-.1918.0725A0.8611,0.8611,0,0,1,7.8949,16.1289Z"></path><path d="M9.24,15.3s0.0184-.0175.0516-0.0463,0.08-.0705.1386-0.1176c0.1159-.0954.274-0.2169,0.4342-0.335s0.3232-.2322.4471-0.3164c0.061-.0432.115-0.0756,0.1505-0.1013s0.0583-.0375.0583-0.0375-0.0643.0781-.1725,0.1835a4.3658,4.3658,0,0,1-.424.3525,5.17,5.17,0,0,1-.461.3014c-0.065.0379-.1217,0.0656-0.16,0.0864S9.24,15.3,9.24,15.3Z"></path><path d="M6.5494,13.2286s0.0639-.0214.1531-0.0584a3.2467,3.2467,0,0,0,.3152-0.1547c0.056-.03.11-0.0642,0.1619-0.0949l0.14-.0887L7.42,12.768c0.0249-.0151.04-0.0232,0.04-0.0232s-0.0091.0141-.0263,0.0378a0.8219,0.8219,0,0,1-.0773.0935,1.1089,1.1089,0,0,1-.1259.1168,1.3932,1.3932,0,0,1-.1639.11,1.21,1.21,0,0,1-.181.08,0.9139,0.9139,0,0,1-.1677.0419A0.562,0.562,0,0,1,6.5494,13.2286Z"></path><path d="M10.0423,13.2286a0.1789,0.1789,0,0,0,.05-0.0106,0.4585,0.4585,0,0,0,.0536-0.0221c0.02-.0088.0418-0.0226,0.0652-0.036s0.0476-.031.0728-0.05c0.0259-.0172.05-0.04,0.0779-0.06,0.0525-.0443.1075-0.0929,0.1606-0.1442s0.1059-.1033.1554-0.1528,0.0945-.0971.1363-0.1355c0.0788-.0809.1385-0.1306,0.1385-0.1306a1.6785,1.6785,0,0,1-.0937.1669,1.91,1.91,0,0,1-.1153.1583,1.8819,1.8819,0,0,1-.152.1665,1.4578,1.4578,0,0,1-.1774.1424,0.82,0.82,0,0,1-.1787.0913,0.4139,0.4139,0,0,1-.14.0258A0.1438,0.1438,0,0,1,10.0423,13.2286Z"></path><path d="M11.4421,14.7155l0.1673-.1036c0.05-.031.1069-0.067,0.1672-0.1066s0.1241-.082.1829-0.13c0.0313-.0218.06-0.0466,0.088-0.0706s0.0539-.05.08-0.0733c0.0248-.0249.0464-0.0507,0.0691-0.0741l0.0551-.0723c0.0151-.0236.0271-0.0466,0.04-0.0665a0.3129,0.3129,0,0,0,.0258-0.0548l0.0219-.05s0,0.0195-.0024.0548a0.2434,0.2434,0,0,1-.0091.0634,0.8008,0.8008,0,0,1-.0247.08c-0.0133.0274-.027,0.0583-0.045,0.0888a1.0626,1.0626,0,0,1-.0646.09,0.9272,0.9272,0,0,1-.0807.0858c-0.03.0267-.06,0.0545-0.092,0.0784s-0.0654.0472-.0988,0.0684c-0.0325.0227-.0678,0.0393-0.1,0.0579a1.4331,1.4331,0,0,1-.187.0823A1.0485,1.0485,0,0,1,11.4421,14.7155Z"></path><path d="M8.0544,21.5556l0.0248-.0643c0.0169-.04.0362-0.1,0.0614-0.1692,0.0232-.07.0519-0.1515,0.0765-0.24,0.0145-.0436.0235-0.09,0.0368-0.1362s0.0212-.0942.0316-0.1416c0.0076-.0478.0185-0.0953,0.0235-0.1426,0.0032-.0474.0144-0.0938,0.0141-0.1391s0.0074-.0893.0045-0.1307,0.0012-.0816-0.0039-0.1176-0.0069-.07-0.009-0.1c-0.0037-.03-0.01-0.0551-0.0141-0.0765C8.2925,20.0549,8.2891,20.03,8.2891,20.03s0.0117,0.022.03,0.0622c0.0086,0.02.0212,0.0445,0.0318,0.0736s0.02,0.0628.03,0.1a0.8866,0.8866,0,0,1,.0217.1218,0.9323,0.9323,0,0,1,.0091.138,1.2023,1.2023,0,0,1-.0062.1477c-0.0042.05-.0143,0.1-0.0214,0.1508a1.9343,1.9343,0,0,1-.0833.2864,1.7178,1.7178,0,0,1-.2044.39A0.6549,0.6549,0,0,1,8.0544,21.5556Z"></path><path d="M7.2142,21.0927a1.1046,1.1046,0,0,1-.0326-0.2214c-0.0021-.0336-0.0028-0.07-0.0025-0.1087,0.0021-.0385.0014-0.08,0.0073-0.1216a1.1979,1.1979,0,0,1,.1008-0.3893,1.3321,1.3321,0,0,1,.0645-0.1168,1.0765,1.0765,0,0,1,.078-0.0981,0.99,0.99,0,0,1,.0834-0.0748c0.0291-.0192.0562-0.0355,0.08-0.05A0.4058,0.4058,0,0,1,7.66,19.8855l0.0585-.0191-0.0492.0368a0.6162,0.6162,0,0,0-.0545.0411c-0.0188.0187-.04,0.0394-0.0629,0.0607-0.0214.0234-.0407,0.0524-0.064,0.08-0.0213.029-.0382,0.0638-0.06,0.096l-0.0514.11C7.3625,20.33,7.344,20.368,7.3341,20.41a1.98,1.98,0,0,0-.06.2439c-0.0153.0794-.0259,0.1547-0.0347,0.22C7.2229,21.0034,7.2142,21.0927,7.2142,21.0927Z"></path><path d="M6.0307,19.6536a0.0993,0.0993,0,0,1-.05-0.0132,0.1,0.1,0,0,1-.0375-0.1369,2.8045,2.8045,0,0,0,.45-1.1689,2.9281,2.9281,0,0,0-1.3092-.4136,0.1,0.1,0,0,1,.0312-0.1985,2.6592,2.6592,0,0,1,1.4668.5434A2.8225,2.8225,0,0,1,6.118,19.603,0.1,0.1,0,0,1,6.0307,19.6536Z"></path><path d="M10.28,14.3876l1.9468,1.9735,0.3361-.2257a0.2014,0.2014,0,0,0-.0235-0.0292l-1.97-1.9973a6.3033,6.3033,0,0,1-.7274-1.0242,4.8707,4.8707,0,0,0-.9062-1.1227L8.0768,10.1251a0.2008,0.2008,0,1,0-.3638.17l0.8956,1.916L8.6427,12.24a4.4347,4.4347,0,0,1,.8527,1.0485A6.5329,6.5329,0,0,0,10.28,14.3876Z"></path><path d="M10.9144,17.2607a0.199,0.199,0,0,0-.0286-0.04L8.97,15.203c-0.2416-.7777-1.2516-3.1474-1.6279-3.9375A9.3484,9.3484,0,0,0,6.2977,9.6147a0.2008,0.2008,0,1,0-.312.253,9.085,9.085,0,0,1,.9941,1.57c0.4254,0.8933,1.4236,3.2591,1.6195,3.9253L8.6129,15.41l1.9689,2.0742Z"></path><path d="M9.6345,18.11a0.1991,0.1991,0,0,0-.0333-0.0417c-0.0617-.0573-1.5148-1.4061-1.8-1.6506a14.1543,14.1543,0,0,1-1.1506-2.2546c-0.0021-.0044-0.2067-0.4576-0.6061-1.536a2.3165,2.3165,0,0,0-1.3539-1.4682,0.2008,0.2008,0,0,0-.1166.3844A1.9275,1.9275,0,0,1,5.6679,12.767c0.4057,1.0951.6086,1.5442,0.6162,1.5607A14.0043,14.0043,0,0,0,7.54,16.7231c0.2577,0.2209,1.55,1.419,1.7588,1.6128Z"></path></svg>