<svg height='100px' width='100px'  fill="#000000" xmlns="http://www.w3.org/2000/svg" xmlns:xlink="http://www.w3.org/1999/xlink" version="1.1" x="0px" y="0px" viewBox="0 0 100 100" enable-background="new 0 0 100 100" xml:space="preserve"><path d="M43.0352,53.1269c0,2.0459,1.665,3.71,3.7119,3.71c2.0459,0,3.71-1.6641,3.71-3.71  c0-2.0469-1.6641-3.7119-3.71-3.7119C44.7002,49.415,43.0352,51.0801,43.0352,53.1269z M46.7471,50.5869  c1.3994,0,2.5381,1.1396,2.5381,2.54c0,1.3994-1.1387,2.5381-2.5381,2.5381c-1.4004,0-2.54-1.1387-2.54-2.5381  C44.207,51.7265,45.3467,50.5869,46.7471,50.5869z M40.4961,68.1631c-2.0479,0-3.7139,1.665-3.7139,3.7119  s1.666,3.7119,3.7139,3.7119c2.0459,0,3.7109-1.665,3.7109-3.7119S42.542,68.1631,40.4961,68.1631z M40.4961,74.415  c-1.4014,0-2.542-1.1396-2.542-2.54s1.1406-2.54,2.542-2.54c1.4004,0,2.5391,1.1396,2.5391,2.54S41.8965,74.415,40.4961,74.415z   M44.0332,18.3535c0.2295,0.2285,0.2295,0.5996,0,0.8281c-0.1143,0.1143-0.2637,0.1719-0.4141,0.1719s-0.2998-0.0576-0.4141-0.1719  l-3.1406-3.1406c-0.2295-0.2285-0.2295-0.5996,0-0.8281c0.2285-0.2285,0.5996-0.2285,0.8281,0L44.0332,18.3535z M50.457,12.501  v4.4424c0,0.3232-0.2627,0.5859-0.5859,0.5859s-0.5859-0.2627-0.5859-0.5859V12.501c0-0.3232,0.2627-0.5859,0.5859-0.5859  S50.457,12.1777,50.457,12.501z M59.6758,15.2129c0.2295,0.2285,0.2295,0.5996,0,0.8281l-3.1396,3.1406  c-0.1143,0.1143-0.2637,0.1719-0.4141,0.1719s-0.2998-0.0576-0.4141-0.1719c-0.2295-0.2285-0.2295-0.5996,0-0.8281l3.1396-3.1406  C59.0762,14.9844,59.4473,14.9844,59.6758,15.2129z M50,0C22.3877,0,0,22.386,0,50c0,27.6139,22.3877,50,50,50  c27.6152,0,50-22.3861,50-50C100,22.386,77.6152,0,50,0z M1.1719,50c0-13.634,5.6233-25.9742,14.6646-34.8413l26.6987,26.6997  L31.0186,72.4599c-0.0098,0.0264-0.0176,0.0527-0.0234,0.0801c-0.3086,0.8008-0.4648,1.6289-0.4648,2.4609  c0,3.7686,3.0664,6.835,6.835,6.835H62.375c3.7695,0,6.8359-3.0664,6.8359-6.835c0-0.5329-0.072-1.0647-0.2007-1.5905  l13.2222,13.2214C73.626,94.214,62.3447,98.828,50,98.828C23.0762,98.828,1.1719,76.9239,1.1719,50z M55.5293,25.5947V40.626  c0,0.0703,0.0127,0.1406,0.0371,0.2061l7.9351,21.084H36.2393l7.9346-21.084c0.0244-0.0654,0.0371-0.1357,0.0371-0.2061V25.5947  H55.5293z M67.5918,72.7842c0.0068,0.0371,0.0166,0.0732,0.0312,0.1084c0.2764,0.6904,0.416,1.4004,0.416,2.1084  c0,3.123-2.541,5.6631-5.6641,5.6631H37.3652c-3.123,0-5.6631-2.54-5.6631-5.6631c0-0.7119,0.1396-1.4209,0.4141-2.1084  c0.0127-0.0322,0.0225-0.0654,0.0293-0.0986l3.6528-9.7061h14.5032c-0.6274,0.6645-1.0193,1.5538-1.0193,2.5371  c0,2.0459,1.666,3.7109,3.7139,3.7109c2.0459,0,3.71-1.665,3.71-3.7109c0-0.9833-0.3914-1.8726-1.0183-2.5371h8.2549  L67.5918,72.7842z M55.5342,65.625c0,1.4004-1.1387,2.5391-2.5381,2.5391c-1.4014,0-2.542-1.1387-2.542-2.5391  c0-1.3994,1.1406-2.5371,2.542-2.5371C54.3955,63.0879,55.5342,64.2256,55.5342,65.625z M83.1062,85.8494L68.1218,70.8659  L56.7012,40.5195V25.5947h5.668c0.3232,0,0.5859-0.2627,0.5859-0.5859s-0.2627-0.5859-0.5859-0.5859h-6.2539l-2.9775-0.002  c-0.0273-0.0039-0.0547-0.0059-0.083-0.0059c0,0,0,0-0.001,0l-3.1816,0.0029l-3.1865-0.0029c-0.001,0-0.001,0-0.001,0  c-0.0273,0-0.0547,0.002-0.0811,0.0059l-2.9785,0.002h-6.2539c-0.3232,0-0.5859,0.2627-0.5859,0.5859s0.2627,0.5859,0.5859,0.5859  h5.668v14.9248l-0.051,0.1355L16.6843,14.3503C25.416,6.1849,37.1306,1.1719,50,1.1719c26.9238,0,48.8281,21.9042,48.8281,48.8281  C98.8281,64.1582,92.7654,76.9226,83.1062,85.8494z"></path></svg>