<svg height='100px' width='100px'  fill="#000000" xmlns="http://www.w3.org/2000/svg" data-name="Layer 1" viewBox="0 0 1000 1000" x="0px" y="0px"><title>nounProject</title><rect x="425.76" y="638.9" width="5.64" height="55.88" transform="translate(-11.11 7.27) rotate(-0.96)"></rect><path d="M782.55,484.32l-.16-2.26-2.26-.32c-46.85-6.62-82,.21-104.31,20.31-13.64,12.27-22.68,29.61-27.07,51.77l-3.45-119.3a75,75,0,0,0,72-74.81V201.46c0-13.73-10.25-25.47-23.33-26.72a25.85,25.85,0,0,0-28.38,25.73V342.9a12.59,12.59,0,1,1-25.18,0V200.47a25.88,25.88,0,0,0-25.85-25.85h-6.72A25.88,25.88,0,0,0,582,200.47V342.9a12.59,12.59,0,0,1-25.18,0V200.47a26,26,0,0,0-51.9,0V359.71a75,75,0,0,0,72,74.81l-4.39,151.29h0l-1.42,49-4.16,143.67a44.21,44.21,0,1,0,88.38,0l-5-171.33a136.62,136.62,0,0,0,33.84,4.46c1.79,0,3.58,0,5.35-.12,30.49-1.38,53.87-11,69.5-28.56C777.8,561.81,785.73,528.62,782.55,484.32Zm-272-124.61V200.47a20.32,20.32,0,0,1,40.63,0V342.9a18.23,18.23,0,1,0,36.45,0V200.47a20.23,20.23,0,0,1,20.22-20.21h6.72a20.23,20.23,0,0,1,20.21,20.21V342.9a18.23,18.23,0,1,0,36.45,0V200.47a20.22,20.22,0,0,1,22.21-20.12c10.22,1,18.23,10.25,18.23,21.11V359.71a69.32,69.32,0,0,1-69.24,69.23h-2.9l5,170.73c-4.54-1.37-8.77-2.85-12.86-4.5-15.09-6-34-10.24-53.4-11.88l4.47-154.35h-2.9A69.32,69.32,0,0,1,510.51,359.71ZM638.75,806.64a38.57,38.57,0,0,1-66.23-27.95L576.68,635,578,588.94c25.19,2.16,43,8.06,51.46,11.47,4.77,1.92,9.75,3.61,15.13,5.18l5,173.1A38.15,38.15,0,0,1,638.75,806.64Zm116-227.42c-14.58,16.39-36.63,25.37-65.54,26.68a129.87,129.87,0,0,1-37.64-4.18l-.17-5.55c-1.43-41.59,8.05-71.84,28.16-89.92,20.72-18.62,53.5-25.1,97.49-19.24C779.73,528.58,772.22,559.6,754.78,579.22Z"></path><path d="M433.27,778.56l-1.4-83.83-5.64.1,1.4,83.86a38.57,38.57,0,1,1-77.1,0l1.37-48.41a83.11,83.11,0,0,0,22.38-9.87c19.13-12.25,28.54-30.4,38.5-49.61,5.22-10.08,10.63-20.5,17.63-30.25l.54-.76-7.23-433.13a27.33,27.33,0,0,0-12.82-22.72,27,27,0,0,0-25.73-1.73c-60.38,27.72-85.7,124.64-83.67,203,1.73,66.55,21.17,115.69,50.88,129.14L348,669.63c-3.84-18.17-11.16-33-21.93-44.2-19.92-20.78-52-29.87-95.19-27L221,599l-.45,2.08c-3.17,14.44-4.46,29.55-3.53,41.47,2.34,30.43,12.69,53.49,30.75,68.55,17.38,14.51,42.24,21.81,74.09,21.81q11.53,0,24.32-1.29l-1.33,46.89a44.21,44.21,0,1,0,88.38,0Zm-77-268.72c-28.18-11.2-47.47-60.2-49.15-124.82-2-76.52,22.32-171,80.39-197.68a21.37,21.37,0,0,1,20.37,1.37,21.72,21.72,0,0,1,10.18,18L425.28,638c-7,9.85-12.32,20.18-17.51,30.18-9.6,18.52-18.67,36-36.53,47.45a76.34,76.34,0,0,1-19.17,8.69l6.06-213.78Zm-12,216.32c-41.46,4-72.7-2.56-92.86-19.37-16.85-14.06-26.52-35.81-28.75-64.67-.82-10.65.29-24.62,3-37.74l5.56-.35c41.53-2.74,72.06,5.78,90.76,25.3C341.23,649.44,348.74,682,344.28,726.16Z"></path></svg>