<?xml version="1.0" standalone="no"?>
<!DOCTYPE svg PUBLIC "-//W3C//DTD SVG 20010904//EN"
 "http://www.w3.org/TR/2001/REC-SVG-20010904/DTD/svg10.dtd">
<svg version="1.0" xmlns="http://www.w3.org/2000/svg"
 width="2500.000000pt" height="2500.000000pt" viewBox="0 0 2500.000000 2500.000000"
 preserveAspectRatio="xMidYMid meet">
<metadata>
Created by potrace 1.11, written by Peter Selinger 2001-2013
</metadata>
<g transform="translate(0.000000,2500.000000) scale(0.100000,-0.100000)"
fill="#000000" stroke="none">
<path d="M12210 17390 c-617 -47 -1123 -292 -1477 -714 -397 -473 -565 -1117
-454 -1740 76 -425 290 -886 603 -1298 76 -100 75 -114 -5 -157 -112 -61 -327
-200 -441 -285 -662 -492 -1032 -1092 -1128 -1826 -16 -123 -16 -490 0 -605
49 -346 146 -637 303 -901 100 -169 197 -293 344 -440 197 -197 377 -326 630
-449 303 -148 598 -228 990 -270 96 -11 459 -13 590 -4 805 55 1507 348 2104
878 l84 74 51 -54 c323 -342 543 -573 633 -662 l108 -107 650 2 650 3 -410
440 c-451 485 -839 899 -922 986 l-55 56 82 104 c513 654 864 1556 1100 2832
16 90 30 167 30 171 0 3 -226 6 -502 6 l-503 0 -27 -168 c-100 -609 -252
-1174 -438 -1627 -99 -240 -325 -662 -351 -653 -19 7 -788 883 -1752 1996
-163 189 -297 351 -297 360 0 12 43 39 137 86 775 395 1304 862 1539 1361 225
476 238 1081 34 1560 -249 585 -803 970 -1495 1039 -108 11 -305 14 -405 6z
m365 -779 c365 -97 615 -396 692 -825 21 -121 21 -344 -1 -457 -53 -277 -174
-488 -420 -735 -206 -205 -408 -355 -780 -579 -148 -89 -181 -105 -190 -94
-237 309 -340 469 -437 674 -183 389 -235 818 -144 1201 111 467 420 769 860
838 17 2 100 3 185 1 118 -2 174 -8 235 -24z m-859 -4001 c295 -336 562 -635
904 -1015 276 -307 1110 -1226 1159 -1278 l35 -37 -59 -61 c-328 -333 -817
-588 -1275 -662 -155 -26 -159 -26 -315 -33 -410 -18 -779 81 -1095 291 -397
265 -653 696 -711 1195 -14 128 -7 402 15 518 83 450 344 853 771 1194 114 91
288 209 295 201 4 -4 128 -145 276 -313z"/>
<path d="M16829 17263 c24 -40 585 -982 1041 -1748 132 -221 623 -1046 813
-1365 77 -129 203 -341 280 -470 77 -129 187 -313 243 -408 57 -95 104 -175
104 -177 0 -4 -506 -842 -1053 -1745 -212 -350 -373 -616 -569 -940 -102 -168
-335 -552 -518 -855 -183 -302 -364 -601 -401 -663 l-69 -112 693 2 692 3 178
325 c262 477 458 835 649 1185 94 171 194 351 223 400 329 560 548 955 733
1322 64 128 120 233 124 233 4 0 37 -55 74 -122 145 -265 411 -718 675 -1150
140 -229 590 -999 1121 -1920 l160 -278 694 0 c382 0 694 2 694 5 0 2 -165
276 -367 607 -201 332 -435 716 -518 853 -84 138 -387 637 -675 1110 -288 473
-585 962 -661 1086 -75 125 -203 335 -284 468 -81 133 -145 248 -142 255 5 13
275 445 1087 1741 141 226 454 725 695 1110 241 385 521 831 621 992 101 161
184 295 184 298 0 3 -309 5 -688 5 l-687 0 -66 -112 c-36 -62 -136 -232 -221
-378 -85 -146 -212 -362 -280 -480 -69 -118 -242 -415 -385 -660 -475 -814
-619 -1071 -819 -1466 -67 -133 -124 -248 -128 -255 -3 -8 -8 -10 -11 -4 -115
229 -364 686 -618 1135 -282 498 -756 1338 -1045 1852 l-207 368 -697 0 -698
0 29 -47z m1428 -288 c158 -279 214 -378 463 -820 112 -198 319 -566 461 -817
425 -752 575 -1024 758 -1378 l80 -155 51 0 52 0 182 360 c235 463 322 618
1091 1937 l640 1098 562 0 563 0 -94 -147 c-51 -82 -358 -571 -681 -1088 -324
-517 -743 -1187 -933 -1490 -686 -1096 -822 -1313 -822 -1319 0 -4 17 -35 39
-69 21 -34 211 -345 421 -692 693 -1139 1803 -2965 2001 -3290 l128 -210 -532
-5 c-293 -3 -548 -3 -568 -2 -34 4 -38 8 -114 140 -43 76 -117 202 -163 282
-108 186 -178 306 -531 917 -159 276 -364 623 -454 770 -311 510 -587 980
-753 1285 l-69 128 -46 0 -46 0 -72 -147 c-64 -131 -273 -532 -339 -653 -98
-177 -277 -492 -394 -693 -76 -130 -278 -492 -449 -805 -171 -312 -335 -610
-364 -662 -29 -52 -110 -200 -180 -327 l-127 -233 -550 -2 c-302 -2 -554 0
-560 3 -5 3 172 305 393 670 221 365 512 846 647 1069 135 223 347 574 472
780 125 206 370 611 545 900 175 289 353 583 396 654 l79 129 -19 31 c-19 31
-228 383 -1001 1681 -232 391 -485 814 -560 940 -76 127 -265 444 -420 705
-156 261 -318 534 -361 606 -44 73 -79 135 -79 138 0 3 255 5 566 4 l566 -3
125 -220z"/>
<path d="M4805 16899 c-453 -35 -881 -149 -1260 -335 -1098 -539 -1749 -1701
-1854 -3309 -30 -460 -22 -830 30 -1295 133 -1197 606 -2135 1364 -2705 460
-345 992 -540 1665 -610 202 -21 716 -13 915 14 851 116 1506 458 2017 1051
286 333 532 798 687 1299 158 512 229 1017 236 1676 5 547 -19 845 -107 1320
-191 1034 -682 1857 -1398 2347 -462 317 -1005 497 -1654 548 -149 12 -481 11
-641 -1z m700 -114 c661 -63 1171 -250 1645 -603 137 -102 414 -375 520 -512
428 -554 693 -1270 790 -2128 27 -242 37 -417 39 -712 12 -1687 -506 -2923
-1502 -3581 -515 -341 -1126 -509 -1852 -509 -848 -1 -1536 222 -2091 678
-755 620 -1185 1627 -1261 2953 -10 167 -10 619 0 799 28 510 115 994 256
1420 258 777 703 1372 1303 1743 429 266 885 406 1488 460 118 11 523 6 665
-8z"/>
<path d="M4923 15640 c-123 -13 -285 -48 -397 -87 -723 -251 -1098 -967 -1186
-2263 -10 -146 -6 -999 5 -1120 43 -471 97 -770 190 -1060 195 -602 530 -976
1017 -1134 187 -61 348 -84 588 -84 657 -1 1126 261 1429 797 199 353 320 846
372 1516 14 175 18 792 6 1010 -34 658 -142 1157 -337 1550 -97 195 -183 318
-315 450 -224 224 -482 351 -835 410 -109 18 -415 27 -537 15z m447 -115 c346
-38 604 -152 826 -367 203 -196 338 -426 449 -763 85 -257 156 -648 181 -990
3 -49 8 -103 10 -120 2 -16 6 -201 8 -410 5 -453 -4 -656 -45 -995 -103 -858
-381 -1416 -841 -1682 -158 -92 -312 -144 -523 -178 -169 -27 -501 -22 -658 9
-455 92 -771 334 -991 762 -196 378 -291 804 -341 1529 -9 136 -6 780 5 955
47 746 187 1274 441 1655 77 116 255 298 359 367 298 199 678 276 1120 228z"/>
<path d="M13190 6928 c-36 -5 -114 -25 -173 -45 -386 -128 -652 -464 -716
-903 -16 -106 -6 -381 17 -481 98 -419 380 -722 767 -826 92 -24 116 -26 295
-27 180 0 203 2 293 27 355 96 575 318 672 679 14 51 28 127 31 169 l7 76 -98
2 c-54 1 -102 4 -107 7 -9 6 -15 -19 -22 -96 -34 -339 -276 -602 -611 -665
-120 -23 -308 -16 -415 15 -307 88 -524 347 -585 698 -20 114 -20 355 0 462
69 367 282 616 606 706 100 28 347 26 454 -4 221 -63 373 -188 475 -391 36
-73 80 -233 80 -295 0 -22 4 -46 8 -51 4 -6 47 -9 110 -7 l102 4 0 38 c0 102
-51 293 -112 417 -159 322 -488 506 -897 502 -64 -1 -145 -6 -181 -11z"/>
<path d="M19254 6887 c-3 -8 -4 -235 -2 -505 2 -271 2 -492 1 -492 -1 0 -14
26 -30 57 -16 34 -57 87 -99 129 -82 83 -179 136 -296 160 -88 19 -244 14
-333 -10 -234 -65 -404 -248 -477 -516 -20 -74 -23 -108 -23 -265 0 -157 3
-191 23 -264 71 -262 223 -434 447 -508 71 -24 96 -27 220 -27 152 -1 191 7
307 65 76 38 174 132 221 210 l37 64 1 -45 c0 -25 0 -93 -1 -152 l-2 -108 111
0 111 0 0 1110 0 1110 -105 0 c-79 0 -107 -3 -111 -13z m-390 -832 c180 -47
312 -175 373 -364 23 -72 29 -336 10 -439 -41 -217 -196 -380 -401 -422 -246
-50 -454 45 -556 254 -22 45 -46 117 -55 161 -21 103 -20 300 1 403 43 209
171 359 345 406 72 19 211 20 283 1z"/>
<path d="M19890 5790 l0 -1110 110 0 110 0 0 1110 0 1110 -110 0 -110 0 0
-1110z"/>
<path d="M15132 6230 c-196 -51 -346 -181 -411 -355 -40 -107 -44 -99 53 -118
102 -20 106 -21 106 -4 0 25 68 153 103 192 136 156 438 179 589 45 67 -58
100 -140 107 -263 6 -92 5 -98 -14 -102 -11 -3 -119 -25 -240 -50 -433 -89
-577 -144 -685 -261 -165 -180 -109 -496 108 -612 257 -137 635 -40 804 207
l32 45 12 -61 c15 -74 34 -112 82 -165 50 -56 102 -78 182 -78 121 0 200 60
200 151 0 27 -3 49 -7 49 -5 0 -30 -7 -57 -15 -63 -19 -109 -19 -147 1 -58 29
-59 41 -59 511 0 337 -3 443 -15 497 -45 211 -182 346 -397 390 -105 22 -254
20 -346 -4z m550 -787 c2 -9 0 -62 -3 -117 -13 -213 -108 -371 -276 -458 -89
-47 -160 -62 -269 -56 -100 5 -148 24 -201 80 -45 47 -63 96 -63 175 0 85 23
137 80 186 62 53 165 89 405 141 116 25 226 50 245 55 55 14 78 13 82 -6z"/>
<path d="M16986 6235 c-138 -35 -284 -140 -347 -250 l-29 -50 0 138 0 138
-107 -3 -108 -3 -3 -762 -2 -763 109 0 110 0 3 508 c4 484 5 510 25 569 69
207 260 337 468 320 197 -17 326 -141 355 -342 5 -39 10 -286 10 -562 l0 -493
110 0 110 0 0 483 c0 265 -5 523 -10 572 -31 265 -135 411 -350 487 -75 27
-261 34 -344 13z"/>
<path d="M21024 6235 c-374 -82 -618 -434 -597 -860 22 -456 361 -757 826
-732 311 17 533 186 627 479 12 37 19 72 16 77 -5 7 -112 24 -169 26 -4 0 -18
-30 -31 -67 -80 -229 -238 -338 -488 -338 -145 0 -265 44 -365 134 -95 86
-171 239 -188 379 l-7 57 632 0 633 0 -8 123 c-24 403 -214 652 -551 722 -88
18 -247 18 -330 0z m262 -166 c32 -6 84 -22 114 -37 67 -31 165 -127 203 -199
33 -61 67 -189 67 -250 l0 -43 -504 0 c-278 0 -507 3 -509 8 -9 15 34 159 69
231 49 99 154 206 244 249 103 49 203 62 316 41z"/>
<path d="M22575 6235 c-132 -29 -220 -78 -298 -165 -63 -70 -90 -142 -95 -257
-7 -153 41 -256 155 -334 72 -50 185 -85 383 -118 197 -34 312 -61 363 -87
100 -50 143 -146 116 -256 -9 -41 -23 -63 -63 -103 -66 -65 -148 -94 -291
-102 -281 -15 -479 116 -527 348 l-12 61 -56 -7 c-127 -14 -122 -11 -114 -64
11 -76 50 -188 84 -241 47 -73 140 -155 223 -194 124 -60 182 -71 367 -71 145
0 174 3 240 23 265 84 389 254 359 495 -17 132 -87 227 -213 287 -81 38 -141
53 -394 95 -116 20 -231 43 -255 51 -70 25 -118 64 -144 119 -65 141 11 292
171 341 115 34 283 27 401 -17 111 -42 208 -163 235 -296 l12 -55 79 4 c43 3
82 8 86 12 12 12 -26 175 -57 243 -57 126 -185 228 -340 273 -94 28 -322 36
-415 15z"/>
</g>
</svg>
